PathFileType	4	(X/Y/Z)	s05c0301.trc
DataRate	CameraRate	NumFrames	NumMarkers	Units	OrigDataRate	OrigDataStartFrame	OrigNumFrames
200	200	5	50	mm	200	750	2000
Frame#	Time	racr			lacr			c7			jug			rlel			rdr			llel			ldr			s2			lic			ric			lasi			rasi			rpsi			lpsi			rgt			lgt			rth1			rth2			rth3			rth4			rlfc			rmfc			rsh1			rsh2			rsh3			rsh4			rlmal			rmmal			rcal			rtoe			rmt5			lth1			lth2			lth4			lth3			llfc			lmfc			lsh1			lsh2			lsh3			lsh4			llmal			lmmal			lcal			ltoe			lmt5			SBIKE			LBIKE			RBIKE			
		X1	Y1	Z1	X2	Y2	Z2	X3	Y3	Z3	X4	Y4	Z4	X5	Y5	Z5	X6	Y6	Z6	X7	Y7	Z7	X8	Y8	Z8	X9	Y9	Z9	X10	Y10	Z10	X11	Y11	Z11	X12	Y12	Z12	X13	Y13	Z13	X14	Y14	Z14	X15	Y15	Z15	X16	Y16	Z16	X17	Y17	Z17	X18	Y18	Z18	X19	Y19	Z19	X20	Y20	Z20	X21	Y21	Z21	X22	Y22	Z22	X23	Y23	Z23	X24	Y24	Z24	X25	Y25	Z25	X26	Y26	Z26	X27	Y27	Z27	X28	Y28	Z28	X29	Y29	Z29	X30	Y30	Z30	X31	Y31	Z31	X32	Y32	Z32	X33	Y33	Z33	X34	Y34	Z34	X35	Y35	Z35	X36	Y36	Z36	X37	Y37	Z37	X38	Y38	Z38	X39	Y39	Z39	X40	Y40	Z40	X41	Y41	Z41	X42	Y42	Z42	X43	Y43	Z43	X44	Y44	Z44	X45	Y45	Z45	X46	Y46	Z46	X47	Y47	Z47	X48	Y48	Z48	X49	Y49	Z49	X50	Y50	Z50	
750	3.7500	748.247704	1330.518129	-178.427818	762.774973	1309.032525	-465.825082	751.159112	1394.212658	-337.609376	692.264684	1246.073099	-317.363269	590.775236	1130.411909	-28.378167	697.190667	923.155074	-91.376375	557.203418	1115.469184	-594.161155	686.043468	923.396439	-484.808272	166.103150	1247.551717	-352.187935	334.558384	1205.382517	-467.898735	295.345259	1281.667497	-196.683941	363.784006	1151.975878	-413.753111	319.273016	1207.053363	-207.708057	201.505986	1297.712909	-316.514294	219.849103	1278.366278	-400.022975	230.112604	1161.367831	-151.159831	242.667897	1117.304631	-481.598303	319.189388	1084.979274	-119.562915	399.146716	1048.106860	-103.177188	447.129631	975.292761	-90.649325	423.125569	1072.885450	-117.267660	540.999260	862.783372	-95.255794	542.125496	850.218500	-206.338078	444.672841	816.476777	-76.252390	387.687253	749.917402	-91.174888	308.536693	718.933159	-101.077197	409.201809	725.688882	-112.328760	205.714461	637.447253	-114.619334	240.132277	644.993336	-191.331444	144.732188	676.833743	-163.214184	264.365608	406.851311	-159.846754	197.553213	484.559439	-94.839973	263.696595	987.219214	-494.503181	290.976787	906.622509	-485.983880	325.480247	908.474360	-471.150239	270.921604	818.118820	-479.967463	269.947264	677.698815	-442.530187	240.498614	672.534828	-339.977326	218.184818	562.873329	-475.159097	219.370416	477.081381	-460.866358	177.348267	398.715641	-461.502055	247.570856	473.497492	-435.198595	160.596733	282.303200	-451.185589	179.654855	304.810429	-378.508218	91.935988	268.531450	-414.898866	355.933848	135.800032	-392.061513	252.623094	152.170631	-465.559654	-219.518767	911.244477	-275.371652	-53.369773	79.135219	-474.899414	-53.314092	79.289935	-77.321700	
751	3.7550	747.711720	1330.547175	-175.930517	763.790123	1310.499215	-463.021072	751.085877	1394.803564	-334.829215	692.153771	1246.418958	-315.521517	589.348179	1129.882592	-28.222462	696.973185	923.780116	-91.294331	559.470329	1116.714772	-593.651136	686.629555	923.101577	-484.857545	166.166792	1246.485617	-356.716534	337.260661	1204.311965	-469.589898	293.123195	1282.880322	-199.108453	365.424909	1151.525382	-414.780441	317.699524	1207.529205	-209.742760	201.199057	1297.308564	-321.808994	220.883037	1277.510440	-404.360159	228.630681	1161.699433	-154.439723	245.021112	1116.420419	-484.513834	319.102468	1087.236440	-122.820947	399.747133	1052.112254	-105.633933	448.964613	980.492360	-91.818438	423.362529	1077.396006	-119.632992	545.445425	870.211592	-96.175517	547.500849	857.644400	-206.480947	449.803477	822.907720	-77.513239	393.759295	755.578024	-92.042122	315.160069	723.314610	-102.145696	415.721277	731.257696	-112.685486	213.475416	639.921849	-115.446508	248.115938	647.742430	-191.763385	152.077593	678.310347	-164.140111	275.796861	410.442416	-159.762332	207.610009	487.095602	-95.098112	265.602277	987.177762	-496.559305	291.501524	906.727274	-487.943439	325.534013	907.417484	-472.216477	269.384001	818.113782	-481.843540	265.430376	677.063997	-445.720693	234.764327	672.823995	-342.584815	213.213865	562.665027	-478.231416	214.137114	476.892057	-463.781677	171.791251	398.725808	-464.818275	242.184211	473.340633	-437.934872	154.386023	282.077920	-453.619524	173.058145	304.055208	-380.278580	85.550751	270.253776	-417.558618	345.878144	131.393310	-391.300490	243.583987	149.211756	-465.888852	-219.595013	911.257196	-275.409071	-53.385591	79.138724	-474.920073	-53.327719	79.275620	-77.347082	
752	3.7600	747.276912	1330.291064	-173.413533	764.731198	1311.833273	-460.448365	751.082935	1395.178612	-332.101210	692.081725	1246.776558	-313.550180	587.977340	1129.309072	-28.648051	696.688230	924.463643	-91.240724	561.444641	1118.133710	-593.179742	687.023702	922.969341	-485.194705	166.236637	1246.210260	-361.542454	339.626837	1203.599094	-471.338784	290.439532	1282.757391	-202.196903	366.655187	1151.325987	-415.787969	315.937303	1208.185330	-211.749185	200.422963	1297.506666	-325.763854	222.242903	1276.987176	-407.542315	226.964386	1162.298289	-157.617838	247.015984	1115.909992	-487.586193	318.696086	1089.732440	-126.093450	399.937797	1056.126482	-107.860819	450.564877	985.301373	-94.238338	423.230548	1081.733653	-121.944026	549.311073	877.336763	-97.248483	551.633609	864.992828	-209.949282	454.511368	828.928690	-79.138007	399.422562	760.546654	-93.197466	321.526372	727.156428	-103.152014	421.708145	736.141215	-112.564637	221.176624	641.939760	-116.457221	255.720619	649.797739	-192.352534	159.481893	679.276775	-165.158205	287.017061	413.593903	-159.710862	217.700500	489.628483	-95.256830	267.565273	987.348393	-498.400184	292.382693	906.655520	-489.185642	326.003209	906.922261	-472.923281	269.137872	818.293847	-483.632427	262.219531	676.841826	-448.789249	230.868178	672.562665	-345.965966	209.330870	562.892374	-481.049649	209.677256	477.164753	-466.309745	166.932440	399.199704	-467.474429	237.670023	473.435699	-440.449665	148.398925	282.548712	-455.721784	167.005870	304.112540	-381.951240	79.271511	272.801464	-419.752510	335.674128	127.417390	-390.505071	234.405679	147.216337	-466.015201	-219.698797	911.250335	-275.386489	-53.404497	79.152516	-474.942963	-53.340289	79.298742	-77.336190	
753	3.7650	746.925285	1329.754140	-171.018681	765.557054	1312.923335	-457.844372	751.202903	1395.365466	-329.330875	691.965557	1246.750195	-311.671464	587.059804	1128.198939	-27.351921	696.348465	925.170878	-91.332467	563.184966	1119.453684	-592.852922	687.399442	922.925024	-485.834332	166.326105	1246.520826	-366.074542	341.600922	1203.394445	-473.035055	288.153245	1283.109431	-205.305456	367.469415	1151.571312	-416.951317	314.031764	1209.092911	-213.697309	199.570746	1298.678815	-329.429655	222.845231	1277.159889	-411.369141	225.271551	1163.221758	-160.774085	248.644117	1115.770728	-490.692399	317.669976	1092.194921	-128.968587	399.510470	1059.865639	-110.494724	451.165159	989.945023	-96.512229	422.448064	1085.895693	-124.457393	552.435206	884.156784	-98.093144	556.108693	870.517319	-209.967692	458.680244	834.542136	-80.998143	404.804831	765.094312	-94.452178	327.520436	730.326696	-104.318983	427.545545	740.954118	-113.299237	228.794476	643.614513	-117.675911	263.248012	651.391147	-193.215979	166.030018	679.435129	-166.217960	298.288053	416.159166	-159.665279	228.237343	491.633420	-94.991885	269.421401	987.681206	-499.979541	293.566113	906.711366	-490.193726	327.063456	907.019282	-473.598894	269.977542	818.550328	-485.106677	260.531587	677.061890	-451.461553	229.287599	672.280170	-348.259345	206.620488	563.535508	-483.369980	206.032737	477.815023	-468.441248	162.509764	400.280795	-469.630192	234.010361	473.777062	-442.677728	142.643281	283.700179	-457.533092	161.589671	305.020534	-383.509630	73.207861	275.901256	-421.650566	325.433865	124.120372	-389.810928	225.239515	145.981626	-466.082896	-219.791720	911.243271	-275.350758	-53.430167	79.178162	-474.933474	-53.361345	79.296843	-77.340442	
754	3.7700	746.650377	1328.782133	-168.586473	766.218918	1313.850361	-455.334771	751.446640	1395.193410	-326.572215	691.846059	1246.672289	-309.873819	585.553911	1127.423637	-26.980917	695.872454	925.996241	-91.520550	564.899426	1120.814606	-592.688966	687.781401	922.774568	-486.464069	166.401424	1247.246470	-369.924892	343.131629	1203.758714	-474.823989	285.976899	1283.279428	-208.456136	367.931251	1151.909360	-418.285923	312.293636	1210.182727	-215.892558	199.432107	1299.194011	-333.614275	223.221186	1277.937729	-414.938369	223.477402	1164.448138	-163.729205	249.851253	1116.118407	-493.699829	316.245393	1094.449331	-132.448691	398.373221	1063.295122	-113.284437	451.025770	994.142658	-99.068895	421.035208	1089.818470	-126.971089	554.929085	890.521325	-99.358595	559.077076	877.321862	-210.766067	462.375444	839.536628	-82.941629	409.810949	769.166338	-95.813825	333.183736	732.737799	-105.614563	432.889743	745.302152	-114.424353	235.064917	644.195085	-118.929320	269.199229	652.388313	-194.309704	171.578045	678.727552	-167.855099	310.142539	418.631355	-159.346452	237.766656	492.974431	-95.212505	271.233930	988.107234	-501.542949	295.240932	907.088297	-491.070754	328.577442	907.571515	-474.293310	271.718114	818.980586	-486.348984	260.492390	677.422233	-453.448794	229.454926	672.452269	-350.026175	205.000548	564.376308	-485.102476	203.192424	478.759223	-470.072381	158.629408	401.887841	-471.179805	231.255932	474.284394	-444.528383	137.116065	285.431908	-459.012424	156.901157	306.817297	-384.937212	67.459147	279.692591	-423.168859	315.182628	121.349080	-389.260700	215.979965	145.373600	-466.190517	-219.885298	911.258087	-275.214364	-53.456284	79.174449	-474.951725	-53.377689	79.301895	-77.369237	
